<svg width="148" height="28" viewBox="0 0 148 28" fill="none" xmlns="http://www.w3.org/2000/svg">
<path d="M11.598 28C10.4073 28 9.63467 27.924 9.28 27.772C8.92533 27.5947 8.54533 27.088 8.14 26.252L3.238 14.206L8.9 0.639999H9.052C9.86267 0.639999 10.3947 0.665332 10.648 0.715998C10.9267 0.766665 11.066 0.867999 11.066 1.02C11.066 1.172 9.318 5.56733 5.822 14.206L11.75 28H11.598ZM0.502 28H0.35V0.639999H0.502C1.59133 0.639999 2.22467 0.715999 2.402 0.867998C2.60467 1.02 2.706 1.52667 2.706 2.388V26.252C2.706 27.1133 2.60467 27.62 2.402 27.772C2.22467 27.924 1.59133 28 0.502 28ZM19.6202 0.639999C20.5575 0.639999 21.1275 0.715999 21.3302 0.867998C21.5328 1.02 21.7228 1.52667 21.9002 2.388L26.0042 23.174H26.4982L30.6402 0.639999H31.2102C31.9195 0.639999 32.3755 0.665332 32.5782 0.715998C32.8062 0.766665 32.9202 0.931332 32.9202 1.21C32.9202 2.52733 31.0455 11.4573 27.2962 28H24.8642L19.0502 0.639999H19.6202ZM53.0513 28C51.9113 28 51.2273 27.924 50.9993 27.772C50.7966 27.62 50.5939 27.1133 50.3913 26.252L48.7193 18.69H42.9433L40.8913 28C40.4859 28 40.1313 28 39.8273 28C39.5233 28 39.2699 27.9747 39.0673 27.924C38.8646 27.8733 38.7379 27.81 38.6873 27.734C38.6366 27.658 38.6113 27.5313 38.6113 27.354C38.6113 27.1767 40.6126 18.272 44.6153 0.639999H47.0473L53.2413 28H53.0513ZM48.4533 16.6L48.1113 15.65L46.2113 5.504H45.4893L43.6273 15.65L43.2853 16.6H48.4533ZM78.4189 28H78.2669C77.1776 28 76.5443 27.924 76.3669 27.772C76.1896 27.62 76.0883 27.1133 76.0629 26.252L76.2149 6.036H75.7969L75.6449 6.72L71.8069 14.814L70.8949 16.562H69.3749L68.4249 14.852L64.5109 6.72L64.3969 6.036H64.0169L64.1309 26.252C64.1309 27.1133 64.0423 27.62 63.8649 27.772C63.6876 27.924 63.0543 28 61.9649 28H61.8129V0.639999H62.0029C63.0923 0.639999 63.7509 0.715999 63.9789 0.867998C64.2323 1.02 64.5743 1.52667 65.0049 2.388L69.8309 12.8H70.4009L76.0629 0.639999H76.2529C77.3423 0.639999 77.9756 0.715999 78.1529 0.867998C78.3303 1.02 78.4189 1.52667 78.4189 2.388V28ZM105.55 28H105.398C104.309 28 103.676 27.924 103.498 27.772C103.321 27.62 103.22 27.1133 103.194 26.252L103.346 6.036H102.928L102.776 6.72L98.9383 14.814L98.0263 16.562H96.5063L95.5563 14.852L91.6423 6.72L91.5283 6.036H91.1483L91.2623 26.252C91.2623 27.1133 91.1737 27.62 90.9963 27.772C90.819 27.924 90.1857 28 89.0963 28H88.9443V0.639999H89.1343C90.2237 0.639999 90.8823 0.715999 91.1103 0.867998C91.3637 1.02 91.7057 1.52667 92.1363 2.388L96.9623 12.8H97.5323L103.194 0.639999H103.384C104.474 0.639999 105.107 0.715999 105.284 0.867998C105.462 1.02 105.55 1.52667 105.55 2.388V28ZM126.602 28H116.228V0.639999H126.222V2.654H118.584L118.736 3.604V11.166L118.584 12.116H125.69V14.282H118.584L118.736 15.232V24.884L118.584 25.834H126.602V28ZM147.531 28H147.379C146.289 28 145.631 27.9367 145.403 27.81C145.175 27.658 144.896 27.1387 144.567 26.252L138.411 8.202L138.221 7.176H137.955V26.252C137.955 27.1133 137.866 27.62 137.689 27.772C137.511 27.924 136.878 28 135.789 28H135.637V0.639999H135.827C136.891 0.639999 137.537 0.715999 137.765 0.867998C137.993 0.994665 138.271 1.50133 138.601 2.388L144.757 20.856L144.947 21.882H145.213V0.639999H145.365C146.454 0.639999 147.087 0.715999 147.265 0.867998C147.442 1.02 147.531 1.52667 147.531 2.388V28Z" fill="#333333"/>
</svg>
