<svg width="157" height="25" viewBox="0 0 157 25" fill="none" xmlns="http://www.w3.org/2000/svg">
<path d="M2.49703 5.24021H4.42903V14.1722H4.56903L12.633 5.24021H15.097L7.17303 13.7242L15.825 24.8402H13.529L5.99703 15.1522L4.42903 16.8322V24.8402H2.49703V5.24021ZM21.5723 5.24021H23.5323L29.8043 22.9642H29.9723L36.2443 5.24021H38.2043L31.2883 24.8402H28.4883L21.5723 5.24021ZM54.0988 18.8482H45.6708L43.4308 24.8402H41.4708L48.9188 5.24021H50.7948L58.3268 24.8402H56.3668L54.0988 18.8482ZM53.5108 17.2522L49.8988 7.73221H49.7868L46.2588 17.2522H53.5108ZM65.2888 5.24021H68.1168L74.4448 21.2002H74.5288L80.8568 5.24021H83.6848V24.8402H81.7808V8.34821H81.6408L75.2288 24.8402H73.7448L67.3328 8.34821H67.1928V24.8402H65.2888V5.24021ZM91.9796 5.24021H94.8076L101.136 21.2002H101.22L107.548 5.24021H110.376V24.8402H108.472V8.34821H108.332L101.92 24.8402H100.436L94.0236 8.34821H93.8836V24.8402H91.9796V5.24021ZM120.63 7.00421V14.0042H129.366V15.6282H120.63V23.0762H130.486V24.8402H118.698V5.24021H130.486V7.00421H120.63ZM138.279 5.24021H140.435L151.775 21.6762H151.859V5.24021H153.791V24.8402H151.635L140.323 8.54421H140.211V24.8402H138.279V5.24021Z" fill="#333333"/>
</svg>
